HIERARCHY
ROOT Hips
{
	OFFSET 0.00000 0.00000 0.00000
	CHANNELS 6 Xposition Yposition Zposition Zrotation Yrotation Xrotation 
	JOINT LHipJoint
	{
		OFFSET 0 0 0
		CHANNELS 3 Zrotation Yrotation Xrotation
		JOINT LeftUpLeg
		{
			OFFSET 1.57338 -1.94743 0.52196
			CHANNELS 3 Zrotation Yrotation Xrotation
			JOINT LeftLeg
			{
				OFFSET 2.60333 -7.15259 0.00000
				CHANNELS 3 Zrotation Yrotation Xrotation
				JOINT LeftFoot
				{
					OFFSET 2.77855 -7.63400 0.00000
					CHANNELS 3 Zrotation Yrotation Xrotation
					JOINT LeftToeBase
					{
						OFFSET 0.19847 -0.54529 2.28466
						CHANNELS 3 Zrotation Yrotation Xrotation
						End Site
						{
							OFFSET 0.00000 -0.00000 1.17993
						}
					}
				}
			}
		}
	}
	JOINT RHipJoint
	{
		OFFSET 0 0 0
		CHANNELS 3 Zrotation Yrotation Xrotation
		JOINT RightUpLeg
		{
			OFFSET -1.61527 -1.94743 0.52196
			CHANNELS 3 Zrotation Yrotation Xrotation
			JOINT RightLeg
			{
				OFFSET -2.53829 -6.97390 0.00000
				CHANNELS 3 Zrotation Yrotation Xrotation
				JOINT RightFoot
				{
					OFFSET -2.80762 -7.71387 0.00000
					CHANNELS 3 Zrotation Yrotation Xrotation
					JOINT RightToeBase
					{
						OFFSET -0.30536 -0.83898 2.28801
						CHANNELS 3 Zrotation Yrotation Xrotation
						End Site
						{
							OFFSET -0.00000 -0.00000 1.21323
						}
					}
				}
			}
		}
	}
	JOINT LowerBack
	{
		OFFSET 0 0 0
		CHANNELS 3 Zrotation Yrotation Xrotation
		JOINT Spine
		{
			OFFSET -0.04381 1.99497 -0.19778
			CHANNELS 3 Zrotation Yrotation Xrotation
			JOINT Spine1
			{
				OFFSET -0.01959 2.01295 -0.04372
				CHANNELS 3 Zrotation Yrotation Xrotation
				JOINT Neck
				{
					OFFSET 0 0 0
					CHANNELS 3 Zrotation Yrotation Xrotation
					JOINT Neck1
					{
						OFFSET -0.05459 1.76913 0.09708
						CHANNELS 3 Zrotation Yrotation Xrotation
						JOINT Head
						{
							OFFSET 0.09461 1.77368 -0.11172
							CHANNELS 3 Zrotation Yrotation Xrotation
							End Site
							{
								OFFSET 0.03812 1.78157 -0.04834
							}
						}
					}
				}
				JOINT LeftShoulder
				{
					OFFSET 0 0 0
					CHANNELS 3 Zrotation Yrotation Xrotation
					JOINT LeftArm
					{
						OFFSET 3.50922 1.24034 -0.28866
						CHANNELS 3 Zrotation Yrotation Xrotation
						JOINT LeftForeArm
						{
							OFFSET 5.40188 -0.00000 0.00000
							CHANNELS 3 Zrotation Yrotation Xrotation
							JOINT LeftHand
							{
								OFFSET 3.68559 -0.00000 0.00000
								CHANNELS 3 Zrotation Yrotation Xrotation
								JOINT LeftFingerBase
								{
									OFFSET 0 0 0
									CHANNELS 3 Zrotation Yrotation Xrotation
									JOINT LeftHandIndex1
									{
										OFFSET 0.61753 -0.00000 0.00000
										CHANNELS 3 Zrotation Yrotation Xrotation
										End Site
										{
											OFFSET 0.49787 -0.00000 0.00000
										}
									}
								}
								JOINT LThumb
								{
									OFFSET 0 0 0
									CHANNELS 3 Zrotation Yrotation Xrotation
									End Site
									{
										OFFSET 0.50547 -0.00000 0.50547
									}
								}
							}
						}
					}
				}
				JOINT RightShoulder
				{
					OFFSET 0 0 0
					CHANNELS 3 Zrotation Yrotation Xrotation
					JOINT RightArm
					{
						OFFSET -2.95373 1.39649 -0.27346
						CHANNELS 3 Zrotation Yrotation Xrotation
						JOINT RightForeArm
						{
							OFFSET -6.10670 -0.00000 -0.00000
							CHANNELS 3 Zrotation Yrotation Xrotation
							JOINT RightHand
							{
								OFFSET -3.63052 -0.00000 0.00000
								CHANNELS 3 Zrotation Yrotation Xrotation
								JOINT RightFingerBase
								{
									OFFSET 0 0 0
									CHANNELS 3 Zrotation Yrotation Xrotation
									JOINT RightHandIndex1
									{
										OFFSET -0.58385 -0.00000 0.00000
										CHANNELS 3 Zrotation Yrotation Xrotation
										End Site
										{
											OFFSET -0.47071 -0.00000 0.00000
										}
									}
								}
								JOINT RThumb
								{
									OFFSET 0 0 0
									CHANNELS 3 Zrotation Yrotation Xrotation
									End Site
									{
										OFFSET -0.47790 -0.00000 0.47790
									}
								}
							}
						}
					}
				}
			}
		}
	}
}
MOTION
Frames: 10
Frame Time: .0083333
7.6355 18.7436 8.0529 0 0 0 0 0 0 -21 0 0 0 0 0 0 0 0 0 0 0 0 0 0 21 0 0 0 0 0 0 0 0 0 0 0 0 0 0 0 0 0 0 0 0 0 0 -16 0 0 21 0 0 11 0 0 0 -8 0 0 0 0 0 0 0 0 0 0 0 0 0 0 0 0 0 0 0 0 8 0 0 0 0 0 0 0 0 0 0 0 0 0 0 0 0 0
7.6355 18.7436 8.0529 170.1960 -85.9201 -163.9690 0.0000 0.0000 0.0000 -23.5713 -5.6238 -13.3625 1.7767 8.3846 23.8884 1.3659 21.9078 -38.6511 0.6276 5.0692 14.1061 0.0000 0.0000 0.0000 10.4635 34.0516 -15.9119 -3.6417 -11.6677 34.5662 -0.5426 7.0236 -13.2771 -0.4991 4.5290 -12.5698 -11.0618 -1.2990 9.5096 -1.8906 -3.0151 1.8232 4.5704 -1.4605 -2.9616 -8.6413 -7.1609 -7.9563 12.4412 -11.7779 20.0492 4.3653 -5.3307 8.8069 0.0000 0.0000 0.0000 -85.3596 -5.7679 12.7241 10.1506 -16.9747 -1.5186 -0.0000 0.0000 -2.1058 21.9718 24.2065 9.3932 -7.1250 0.0000 -0.0000 -8.0138 55.6629 -2.1068 0.0000 0.0000 0.0000 81.1580 -3.1020 11.8322 -27.2337 38.4011 -9.6439 0.0000 0.0000 17.3162 -21.9412 2.3841 -0.9600 7.1250 -0.0000 -0.0000 3.5708 -27.4048 1.5293
7.6234 18.7442 8.0415 169.9030 -85.9206 -163.6820 0.0000 0.0000 0.0000 -23.5513 -5.7026 -13.2445 1.7668 8.3624 23.8203 1.3338 22.0217 -38.6109 0.6056 4.9814 13.8554 0.0000 0.0000 0.0000 10.2691 34.1665 -15.9340 -3.5642 -11.5568 34.1815 -0.6295 5.5260 -14.1341 -0.5230 4.6349 -12.8702 -10.9663 -1.3990 9.6138 -1.9103 -3.1534 1.8189 4.5159 -1.5271 -3.0088 -8.6801 -7.1733 -7.9772 12.5071 -11.7905 19.9645 4.3912 -5.3344 8.7903 0.0000 0.0000 0.0000 -85.3129 -6.0117 12.6893 10.0288 -16.7846 -1.4833 -0.0000 0.0000 -1.9869 21.9756 24.3186 9.4351 -7.1250 0.0000 -0.0000 -8.0560 55.7794 -2.1408 0.0000 0.0000 0.0000 81.0653 -3.1644 11.0775 -27.4991 38.6510 -9.8092 0.0000 0.0000 16.9993 -21.9656 1.8708 -0.7544 7.1250 -0.0000 -0.0000 3.5641 -27.9568 1.4799
7.6046 18.7472 8.0361 169.9420 -85.9490 -163.7470 0.0000 0.0000 0.0000 -23.5404 -5.6851 -13.0419 1.7410 8.3045 23.6428 1.2559 22.2411 -38.4567 0.5644 4.8115 13.3718 0.0000 0.0000 0.0000 10.1419 34.2050 -15.9000 -3.4885 -11.4467 33.8018 -0.7031 3.7551 -15.0140 -0.4758 4.4237 -12.2719 -10.7917 -1.5327 9.6278 -1.9018 -3.3095 1.8774 4.4431 -1.6114 -2.9397 -8.7173 -7.1759 -7.9785 12.5698 -11.7633 19.7340 4.4201 -5.3210 8.7155 0.0000 0.0000 0.0000 -85.3790 -6.3347 12.3965 9.9139 -16.6048 -1.4503 -0.0000 0.0000 -1.7188 22.2301 24.3464 9.5639 -7.1250 0.0000 -0.0000 -7.7994 55.8605 -2.0874 0.0000 0.0000 0.0000 80.7891 -3.1862 10.5038 -27.7917 38.9238 -9.9926 0.0000 0.0000 16.4216 -22.1096 0.6869 -0.2790 7.1250 -0.0000 -0.0000 3.4868 -29.2305 1.3424
7.5905 18.7533 8.0319 168.7660 -85.8881 -162.6400 0.0000 0.0000 0.0000 -23.6550 -5.4281 -12.8851 1.7120 8.2384 23.4406 1.1863 22.3593 -38.2366 0.5241 4.6395 12.8832 0.0000 0.0000 0.0000 9.9158 34.0624 -15.9341 -3.4199 -11.3457 33.4548 -0.7424 1.9481 -15.7328 -0.3816 3.9670 -10.9839 -10.7398 -1.5714 9.8086 -1.8830 -3.3780 1.8977 4.4494 -1.6429 -3.0102 -8.9092 -7.2362 -8.0396 12.6855 -11.8204 19.6253 4.4814 -5.3492 8.7168 0.0000 0.0000 0.0000 -85.5759 -6.6050 12.1191 9.8405 -16.4896 -1.4293 -0.0000 0.0000 -1.2476 22.0201 24.3461 9.4657 -7.1250 0.0000 -0.0000 -8.0206 55.8168 -2.1386 0.0000 0.0000 0.0000 80.4130 -3.2540 9.7929 -27.9825 39.1002 -10.1127 0.0000 0.0000 16.2798 -22.3660 -0.0745 0.0307 7.1250 -0.0000 -0.0000 3.3120 -30.0521 1.2100
7.5780 18.7618 8.0264 168.2530 -85.7582 -162.1670 0.0000 0.0000 0.0000 -23.7327 -5.1581 -12.7495 1.6767 8.1574 23.1933 1.2057 22.2953 -38.2648 0.5384 4.7012 13.0584 0.0000 0.0000 0.0000 9.7130 33.8308 -16.0767 -3.3551 -11.2488 33.1236 -0.7568 0.3319 -16.3314 -0.2943 3.4885 -9.6417 -10.6202 -1.5736 9.9681 -1.9347 -3.3944 1.8892 4.3391 -1.6469 -3.1160 -8.7943 -7.2983 -7.9585 12.6604 -11.8904 19.4026 4.4451 -5.3822 8.6265 0.0000 0.0000 0.0000 -85.5481 -6.8859 12.3274 9.6984 -16.2664 -1.3893 -0.0000 0.0000 -1.1302 22.0761 24.3708 9.5007 -7.1250 0.0000 -0.0000 -7.9718 55.8539 -2.1326 0.0000 0.0000 0.0000 80.2871 -3.3044 8.8598 -28.0400 39.1530 -10.1489 0.0000 0.0000 16.5089 -22.7737 -0.1089 0.0457 7.1250 -0.0000 -0.0000 2.9918 -30.0910 1.0899
7.5621 18.7684 8.0177 167.5040 -85.5789 -161.3700 0.0000 0.0000 0.0000 -23.8336 -4.7096 -12.7657 1.6352 8.0610 22.8995 1.1341 22.3706 -37.9876 0.5162 4.6049 12.7850 0.0000 0.0000 0.0000 9.4529 33.5945 -16.3605 -3.2955 -11.1587 32.8169 -0.7571 -1.2531 -16.9369 -0.2177 3.0038 -8.2893 -10.5878 -1.5864 9.9338 -1.9668 -3.4055 1.8893 4.2870 -1.6540 -3.0991 -8.7266 -7.3399 -7.8720 12.5974 -11.9108 19.1679 4.4106 -5.3979 8.5257 -0.0000 0.0000 0.0000 -85.5336 -7.1551 12.6513 9.6013 -16.1135 -1.3622 -0.0000 0.0000 -1.1563 21.9178 24.4040 9.4386 -7.1250 0.0000 -0.0000 -8.1525 55.8553 -2.1817 -0.0000 0.0000 0.0000 80.0979 -3.2782 7.9255 -28.1211 39.2275 -10.2002 0.0000 0.0000 16.5314 -23.0550 -0.3396 0.1446 7.1250 -0.0000 -0.0000 2.7773 -30.3427 0.9949
7.5440 18.7756 8.0055 167.4910 -85.3948 -161.3840 0.0000 0.0000 0.0000 -23.8752 -4.2986 -12.6527 1.5954 7.9670 22.6140 1.0387 22.5309 -37.6799 0.4745 4.4178 12.2552 0.0000 0.0000 0.0000 9.3381 33.2895 -16.5556 -3.2326 -11.0624 32.4905 -0.7281 -3.0516 -17.5075 -0.1310 2.3330 -6.4269 -10.6441 -1.5922 10.0251 -1.8914 -3.4280 1.8706 4.4048 -1.6601 -3.1580 -8.8519 -7.3883 -7.9216 12.5954 -11.9521 19.1565 4.4235 -5.4230 8.5439 -0.0000 0.0000 0.0000 -85.6856 -7.2955 12.7949 9.5854 -16.0884 -1.3578 -0.0000 0.0000 -1.3161 21.9257 24.3541 9.4245 -7.1250 0.0000 -0.0000 -8.1232 55.8055 -2.1640 -0.0000 0.0000 0.0000 79.7173 -3.2332 6.9620 -28.1685 39.2709 -10.2302 0.0000 0.0000 16.3461 -23.7683 -1.1468 0.5050 7.1250 -0.0000 -0.0000 2.2374 -31.2282 0.7538
7.5253 18.7833 7.9954 168.5540 -85.2130 -162.5310 0.0000 0.0000 0.0000 -23.8189 -4.0994 -12.3686 1.5535 7.8666 22.3096 0.9907 22.7003 -37.6226 0.4673 4.3845 12.1610 0.0000 0.0000 0.0000 9.3961 32.8819 -16.7248 -3.1709 -10.9667 32.1677 -0.6629 -4.8919 -17.9313 -0.0906 1.9411 -5.3428 -10.5416 -1.6026 10.1823 -1.8404 -3.4488 1.8702 4.4119 -1.6661 -3.2455 -8.8880 -7.4309 -8.0752 12.6037 -12.0149 19.2591 4.4196 -5.4463 8.6177 -0.0000 0.0000 0.0000 -85.8961 -7.5620 12.1020 9.4941 -15.9444 -1.3326 -0.0000 0.0000 -0.6444 21.9886 24.2602 9.4202 -7.1250 0.0000 -0.0000 -8.0183 55.7218 -2.1194 -0.0000 0.0000 0.0000 79.3480 -3.1759 6.0845 -28.2985 39.3896 -10.3126 0.0000 0.0000 15.7892 -24.6143 -2.3921 1.0955 7.1250 -0.0000 -0.0000 1.6000 -32.6078 0.4858
7.5053 18.7915 7.9903 170.1000 -85.0258 -164.0850 0.0000 0.0000 0.0000 -23.7395 -3.7890 -12.2215 1.5143 7.7712 22.0214 0.8858 22.9687 -37.3862 0.4200 4.1597 11.5264 0.0000 0.0000 0.0000 9.4685 32.4174 -17.0117 -3.1053 -10.8636 31.8214 -0.5753 -6.5019 -18.1596 -0.0589 1.5657 -4.3068 -10.2969 -1.6574 10.1887 -1.7593 -3.4882 1.8878 4.3658 -1.6877 -3.2338 -8.9644 -7.4265 -8.1272 12.5427 -11.9633 19.1906 4.4156 -5.4290 8.5986 0.0000 0.0000 0.0000 -86.1553 -7.9611 11.2347 9.3187 -15.6669 -1.2848 -0.0000 -0.0000 0.2714 21.9920 24.1415 9.3793 -7.1250 0.0000 -0.0000 -7.9659 55.6002 -2.0819 0.0000 0.0000 0.0000 78.9030 -3.0583 5.2947 -28.4194 39.4995 -10.3894 0.0000 0.0000 15.3030 -25.2081 -3.1107 1.4633 7.1250 -0.0000 -0.0000 1.1427 -33.4156 0.3246
